<?xml version="1.0" standalone="no"?>
<!DOCTYPE svg PUBLIC "-//W3C//DTD SVG 20010904//EN"
 "http://www.w3.org/TR/2001/REC-SVG-20010904/DTD/svg10.dtd">
<svg version="1.0" xmlns="http://www.w3.org/2000/svg"
 width="1024.000000pt" height="670.000000pt" viewBox="0 0 1024.000000 670.000000"
 preserveAspectRatio="xMidYMid meet">
<metadata>
Created by potrace 1.16, written by Peter Selinger 2001-2019
</metadata>
<g transform="translate(0.000000,670.000000) scale(0.100000,-0.100000)"
fill="#000000" stroke="none">
<path d="M4895 6154 c-735 -70 -1365 -364 -1876 -874 -357 -355 -598 -766
-734 -1250 -77 -271 -107 -496 -106 -786 0 -414 81 -788 252 -1167 333 -740
952 -1303 1732 -1576 657 -229 1400 -213 2040 43 368 148 682 350 965 621 467
446 746 973 863 1630 22 118 24 159 24 450 -1 347 -11 446 -71 693 -166 679
-577 1277 -1154 1677 -414 286 -830 451 -1320 521 -99 14 -525 27 -615 18z
m610 -659 c599 -109 1106 -412 1464 -875 390 -502 543 -1115 435 -1743 -31
-183 -119 -437 -205 -596 -113 -206 -302 -424 -463 -531 -313 -209 -719 -265
-1106 -153 -190 55 -348 151 -488 298 -99 103 -159 209 -187 325 -48 207 30
412 197 521 154 99 376 91 521 -19 83 -64 147 -184 147 -279 0 -19 5 -33 12
-33 27 0 157 88 213 144 222 225 247 587 60 872 -55 83 -235 260 -330 325
-294 200 -581 308 -970 366 -180 26 -530 24 -731 -5 -402 -59 -701 -156 -1080
-350 -74 -39 -134 -67 -134 -63 0 23 46 186 80 286 206 604 707 1124 1320
1370 191 77 396 130 590 154 118 15 549 6 655 -14z"/>
</g>
</svg>
